<svg width="113" height="34" viewBox="0 0 113 34" fill="none" xmlns="http://www.w3.org/2000/svg">
<g id="Frame" clip-path="url(#clip0_1_245)">
<g id="Group">
<path id="Vector" d="M24.3075 18.728C24.3075 20.7686 23.5809 22.5131 22.1277 23.9613C19.2709 26.8083 16.4142 29.6554 13.5574 32.5024C11.5758 34.4772 8.4713 34.4937 6.53925 32.5518C4.59069 30.6099 4.62372 27.5489 6.62182 25.5576C9.7263 22.4472 12.8473 19.3533 15.9518 16.2594C17.3884 14.8112 17.438 13.7909 16.1334 12.211C16.0178 12.0629 15.9848 11.8325 15.9023 11.635C16.1169 11.5527 16.3481 11.4211 16.5793 11.4046C20.7737 11.1413 24.3075 14.4985 24.3075 18.728Z" fill="black"/>
<path id="Vector_2" d="M7.4146 21.8053C4.14498 21.6078 1.88267 20.1431 0.611152 17.2961C-0.594313 14.5972 0.0331895 11.421 2.11386 9.31448C4.72295 6.68138 7.34855 4.06473 9.99066 1.46453C11.9723 -0.493841 15.0272 -0.477384 16.9592 1.43162C18.8748 3.34062 18.9078 6.40161 16.9592 8.37644C14.7795 10.631 12.5337 12.8198 10.3209 15.025C9.54481 15.7985 8.75217 16.5555 7.99256 17.3619C7.08434 18.3 7.05131 19.6165 7.82743 20.571C8.05862 20.8672 8.22375 21.2293 8.4054 21.5584C8.0421 21.6407 7.64579 21.7395 7.4146 21.8053Z" fill="black"/>
<path id="Vector_3" d="M48.103 9.79192C49.4406 9.79192 50.7121 9.79192 52.0497 9.79192C52.0992 10.2198 52.1323 10.6477 52.1653 10.9933C53.1561 10.516 54.0808 9.89066 55.1212 9.59443C59.6623 8.34371 64.0548 11.4705 64.5833 16.243C64.8475 18.6787 64.4346 20.9497 62.9319 22.9245C60.521 26.1172 56.0294 26.759 52.7928 24.4057C52.6277 24.274 52.446 24.1588 52.1488 23.9449C52.1488 26.6767 52.1488 29.2605 52.1488 31.91C50.7617 31.91 49.4571 31.91 48.103 31.91C48.103 24.5373 48.103 17.1811 48.103 9.79192ZM52.1323 17.5596C52.1323 20.1762 53.9817 22.0852 56.4422 22.0688C58.8862 22.0523 60.6366 20.1598 60.6366 17.5431C60.6366 14.9265 58.8697 13.0339 56.4257 13.0339C53.9487 13.0175 52.1158 14.9594 52.1323 17.5596Z" fill="black"/>
<path id="Vector_4" d="M113 18.7609C109.07 18.7609 105.222 18.7609 101.309 18.7609C101.672 20.4066 102.514 21.5257 104.033 22.0688C105.998 22.7764 107.765 22.184 109.978 20.0446C110.705 20.8839 111.448 21.7232 112.24 22.6283C111.151 24.0765 109.598 25.1297 107.617 25.5905C102.943 26.6438 98.8647 24.2411 97.7253 19.7319C96.4868 14.8935 99.2775 10.335 104.017 9.46276C108.822 8.57408 112.967 11.9807 113.016 16.8355C113.016 17.4279 113 18.0368 113 18.7609ZM109.152 15.667C109.119 14.1036 107.699 12.8858 105.817 12.7541C103.786 12.6225 101.87 13.939 101.606 15.667C104.116 15.667 106.626 15.667 109.152 15.667Z" fill="black"/>
<path id="Vector_5" d="M35.3383 19.9953C36.5437 21.6574 38.0299 22.4967 39.9455 22.3651C40.5234 22.3322 41.1509 22.1182 41.6298 21.8055C42.3729 21.2954 42.3069 20.3409 41.4977 19.9294C40.7711 19.5674 39.9455 19.3864 39.1859 19.0901C38.0134 18.6458 36.7584 18.3002 35.7016 17.6748C33.4558 16.3418 33.0429 13.3467 34.7108 11.3225C37.1052 8.39314 43.083 8.73874 45.048 11.7833C44.2719 12.639 43.5123 13.4619 42.7362 14.3012C41.828 13.2315 40.7381 12.5567 39.2849 12.6884C38.8886 12.7213 38.4593 12.8365 38.1125 13.0175C37.2703 13.4619 37.2703 14.3999 38.129 14.7949C38.8886 15.1569 39.7308 15.338 40.5399 15.6177C41.4482 15.9304 42.3729 16.2102 43.2481 16.5887C44.8499 17.2963 45.8572 18.4977 45.9232 20.308C46.0058 22.217 45.2792 23.7639 43.6279 24.7513C41.2335 26.1831 38.707 26.1008 36.1805 25.0969C34.6612 24.5045 33.5714 23.5171 33.0264 22.4309C33.142 22.2992 33.2741 22.1511 33.4062 22.0195C34.0007 21.3777 34.6282 20.7194 35.3383 19.9953Z" fill="black"/>
<path id="Vector_6" d="M96.5363 22.4638C93.9272 25.607 90.1622 26.6109 86.6284 25.245C83.3753 23.9943 81.3937 20.7358 81.6249 17.0494C81.8561 13.3795 84.1019 10.4996 87.4375 9.59445C90.8888 8.6564 94.6208 9.90713 96.3217 12.4909C95.496 13.3302 94.7034 14.1366 93.8942 14.9594C91.3181 12.6883 88.577 12.4909 86.81 14.4328C85.2083 16.1937 85.3238 19.3534 87.0577 20.9497C88.9237 22.6777 91.731 22.3486 94.0428 19.9952C94.4226 20.4396 94.7859 20.9168 95.1988 21.3282C95.6281 21.7232 96.0905 22.0688 96.5363 22.4638Z" fill="black"/>
<path id="Vector_7" d="M67.374 3.70288C68.7776 3.70288 70.0821 3.70288 71.4527 3.70288C71.4527 10.911 71.4527 18.0698 71.4527 25.2944C70.0986 25.2944 68.7776 25.2944 67.374 25.2944C67.374 18.1191 67.374 10.9275 67.374 3.70288Z" fill="black"/>
<path id="Vector_8" d="M78.9332 25.3272C77.5626 25.3272 76.2746 25.3272 74.9205 25.3272C74.9205 20.1598 74.9205 15.0252 74.9205 9.80835C76.2251 9.80835 77.5626 9.80835 78.9332 9.80835C78.9332 14.9758 78.9332 20.1104 78.9332 25.3272Z" fill="black"/>
<path id="Vector_9" d="M74.4581 5.46383C74.4746 4.08145 75.5315 2.99529 76.9021 2.99529C78.2892 2.97884 79.4451 4.11436 79.4617 5.48029C79.4782 6.84621 78.3388 7.98174 76.9351 7.9982C75.515 7.9982 74.4416 6.89559 74.4581 5.46383Z" fill="black"/>
</g>
</g>
<defs>
<clipPath id="clip0_1_245">
<rect width="113" height="34" fill="white"/>
</clipPath>
</defs>
</svg>
